# xmcd CD database file generated by Grip 3.2.0
# 
# Track frame offsets:
#       150
#       14282
#       26561
#       38122
#       51277
#       61141
#       72252
#       81541
#       92079
#       102334
#       112668
#       122047
#       130377
#       140075
#       153336
#       163925
#       176906
#       185838
#       195900
#       204605
# 
# Disc length: 2891 seconds
# 
# Revision: 1
# Processed by: cddbd v1.5.1PL2 Copyright (c) Steve Scherf et al.
# Submitted via: Grip 3.2.0
# 
DISCID=200b4914
DTITLE=Various Artist - Rhythm and Blues Goes Rock 'n' Roll - Vol 2 - Disc 14
DYEAR=2002
DGENRE=Other
TTITLE0=Louis Jordan - Boogie Woogie Came To Town
TTITLE1=Amos Milburn - Let Me Go Home Whiskey
TTITLE2=Nappy Brown - Little By Little
TTITLE3=Chet Oliver - Going Back To Chicago
TTITLE4=Doctor Ross - Numbers Boogie
TTITLE5=Jerry Mccain - The Jig's Up
TTITLE6=Etta James - That's All
TTITLE7=Eddie Hope - A Fool No More
TTITLE8=J.B. Hutto and His Hawks - Combination Boogie
TTITLE9=Louisiana Red - I Done Woke Up
TTITLE10=Jimmy Wilson - Jumpin' From Six To Six
TTITLE11=Jo Jo Williams - Rock And Roll Boogie
TTITLE12=Hound Dog Taylor - Alley Music
TTITLE13=Mister Ruffin - Bring It On Back
TTITLE14=Sonny Terry - I Love You Baby
TTITLE15=Tarheel Slim - Number Nine Train
TTITLE16=Rosco Gordon - I'm Gonna Shake It
TTITLE17=Willie Egans - Wow Wow
TTITLE18=Bunker Hill - The Girl Can't Dance
TTITLE19=Bob Gaddy - Slow Down Baby
EXTD=YEAR: 2002
EXTT0=
EXTT1=
EXTT2=
EXTT3=
EXTT4=
EXTT5=
EXTT6=
EXTT7=
EXTT8=
EXTT9=
EXTT10=
EXTT11=
EXTT12=
EXTT13=
EXTT14=
EXTT15=
EXTT16=
EXTT17=
EXTT18=
EXTT19=
PLAYORDER=
